<svg width="37" height="37" viewBox="0 0 37 37" fill="none" xmlns="http://www.w3.org/2000/svg">
<g clip-path="url(#clip0_281_1980)">
<path d="M34.0311 24.2863C31.7659 24.2863 29.5416 23.932 27.4339 23.2354C26.401 22.8832 25.1314 23.2063 24.501 23.8537L20.3408 26.9943C15.516 24.4188 12.5441 21.4479 10.0038 16.6593L13.0519 12.6075C13.8439 11.8166 14.1279 10.6613 13.7876 9.57732C13.0881 7.45849 12.7327 5.23531 12.7327 2.96906C12.7328 1.3319 11.4009 0 9.76386 0H2.96896C1.3319 0 0 1.3319 0 2.96896C0 21.7339 15.2662 37 34.0311 37C35.6682 37 37.0001 35.6681 37.0001 34.031V27.2551C37 25.6182 35.6681 24.2863 34.0311 24.2863Z" fill="#8ea611"/>
</g>
<defs>
<clipPath id="clip0_281_1980">
<rect width="37" height="37" fill="white"/>
</clipPath>
</defs>
</svg>
